<svg width="20" height="20" viewBox="0 0 20 20" fill="none" xmlns="http://www.w3.org/2000/svg">
<path fill-rule="evenodd" clip-rule="evenodd" d="M10.8334 3.33329C14.0492 3.33329 16.6667 5.95079 16.6667 9.16663C16.6667 9.62746 17.0392 9.99996 17.5 9.99996C17.9609 9.99996 18.3334 9.62746 18.3334 9.16663C18.3334 5.03079 14.9692 1.66663 10.8334 1.66663C10.3734 1.66663 10 2.03913 10 2.49996C10 2.96079 10.3734 3.33329 10.8334 3.33329ZM10.8334 6.66663C12.2117 6.66663 13.3334 7.78829 13.3334 9.16663C13.3334 9.62746 13.7059 9.99996 14.1667 9.99996C14.6275 9.99996 15 9.62746 15 9.16663C15 6.86913 13.1309 4.99996 10.8334 4.99996C10.3734 4.99996 10 5.37246 10 5.83329C10 6.29413 10.3734 6.66663 10.8334 6.66663ZM17.525 12.7185C17.805 12.7827 18.0325 12.986 18.1259 13.2568C18.1942 13.4527 18.2467 13.6568 18.28 13.8652C18.315 14.0727 18.3334 14.2843 18.3334 14.5002C18.3334 16.6135 16.6142 18.3335 14.5 18.3335C7.42419 18.3335 1.66669 12.5768 1.66669 5.49933C1.66669 3.38599 3.38669 1.66683 5.50002 1.66683C5.71669 1.66683 5.93085 1.68516 6.13835 1.72099C6.34085 1.75349 6.54502 1.80516 6.74252 1.87349C7.01419 1.96766 7.21752 2.19516 7.28169 2.47516L8.42252 7.44433C8.48585 7.71849 8.40669 8.00516 8.21252 8.20766C8.09835 8.32683 8.09585 8.32933 7.06252 8.86933C7.89919 10.6818 9.35335 12.1302 11.1292 12.9393C11.6709 11.9052 11.6734 11.9018 11.7917 11.7877C11.995 11.5935 12.2809 11.516 12.555 11.5768L17.525 12.7185Z" fill="#231F20"/>
<mask id="mask0_16_14030" style="mask-type:alpha" maskUnits="userSpaceOnUse" x="1" y="1" width="18" height="18">
<path fill-rule="evenodd" clip-rule="evenodd" d="M10.8334 3.33329C14.0492 3.33329 16.6667 5.95079 16.6667 9.16663C16.6667 9.62746 17.0392 9.99996 17.5 9.99996C17.9609 9.99996 18.3334 9.62746 18.3334 9.16663C18.3334 5.03079 14.9692 1.66663 10.8334 1.66663C10.3734 1.66663 10 2.03913 10 2.49996C10 2.96079 10.3734 3.33329 10.8334 3.33329ZM10.8334 6.66663C12.2117 6.66663 13.3334 7.78829 13.3334 9.16663C13.3334 9.62746 13.7059 9.99996 14.1667 9.99996C14.6275 9.99996 15 9.62746 15 9.16663C15 6.86913 13.1309 4.99996 10.8334 4.99996C10.3734 4.99996 10 5.37246 10 5.83329C10 6.29413 10.3734 6.66663 10.8334 6.66663ZM17.525 12.7185C17.805 12.7827 18.0325 12.986 18.1259 13.2568C18.1942 13.4527 18.2467 13.6568 18.28 13.8652C18.315 14.0727 18.3334 14.2843 18.3334 14.5002C18.3334 16.6135 16.6142 18.3335 14.5 18.3335C7.42419 18.3335 1.66669 12.5768 1.66669 5.49933C1.66669 3.38599 3.38669 1.66683 5.50002 1.66683C5.71669 1.66683 5.93085 1.68516 6.13835 1.72099C6.34085 1.75349 6.54502 1.80516 6.74252 1.87349C7.01419 1.96766 7.21752 2.19516 7.28169 2.47516L8.42252 7.44433C8.48585 7.71849 8.40669 8.00516 8.21252 8.20766C8.09835 8.32683 8.09585 8.32933 7.06252 8.86933C7.89919 10.6818 9.35335 12.1302 11.1292 12.9393C11.6709 11.9052 11.6734 11.9018 11.7917 11.7877C11.995 11.5935 12.2809 11.516 12.555 11.5768L17.525 12.7185Z" fill="white"/>
</mask>
<g mask="url(#mask0_16_14030)">
<rect width="20" height="20" fill="#B5B6BA"/>
</g>
</svg>
